<?xml version="1.0" encoding="UTF-8" ?>

<svg width="952pt" height="628pt" viewBox="0 0 952 628" version="1.1" xmlns="http://www.w3.org/2000/svg">
<g id="#ffffffff">
</g>
<g id="#151515ff">
<path fill="#151515" opacity="1.00" d=" M 182.12 236.95 C 202.59 233.69 224.03 239.70 240.48 252.13 C 239.55 253.35 238.62 254.57 237.69 255.79 C 221.98 244.06 201.70 237.65 182.13 241.02 C 170.69 243.01 159.34 249.34 153.87 259.94 C 149.41 268.70 149.66 280.25 155.85 288.14 C 160.53 293.94 167.51 297.17 174.33 299.74 C 192.39 306.26 212.39 307.05 229.31 316.70 C 237.93 321.30 244.61 329.97 245.07 339.96 C 247.08 355.59 236.78 370.72 222.45 376.42 C 195.01 387.74 162.06 379.09 141.05 358.85 C 142.12 357.77 143.20 356.69 144.27 355.62 C 161.53 372.56 187.09 380.97 210.93 375.92 C 221.49 373.73 231.93 367.90 237.21 358.18 C 243.40 346.75 241.95 330.12 230.45 322.55 C 212.03 310.19 188.67 310.88 168.73 302.22 C 160.80 298.91 152.92 293.86 149.14 285.84 C 144.60 275.76 145.74 263.26 152.27 254.30 C 159.16 244.56 170.57 238.90 182.12 236.95 Z"></path>
<path fill="#151515" opacity="1.00" d=" M 304.38 236.41 C 314.88 235.47 325.84 236.19 335.60 240.45 C 340.27 242.50 345.11 246.18 345.39 251.73 C 349.43 287.44 353.35 323.18 357.39 358.89 C 358.04 363.56 355.52 368.07 351.88 370.86 C 343.42 377.47 332.49 379.75 322.04 380.92 C 307.30 382.16 291.84 381.16 278.27 374.82 C 272.09 371.92 265.39 366.33 266.53 358.72 C 270.73 322.47 274.43 286.14 278.85 249.92 C 282.34 239.74 295.07 237.78 304.38 236.41 M 303.40 239.48 C 295.95 240.63 287.35 242.18 282.47 248.49 C 279.54 253.22 284.93 257.42 288.81 259.16 C 301.46 264.70 316.14 264.75 329.37 261.34 C 334.17 259.77 339.82 257.77 342.05 252.84 C 343.29 248.73 339.23 245.65 336.07 243.95 C 326.05 238.91 314.37 238.38 303.40 239.48 M 280.82 257.37 C 277.06 291.41 273.22 325.43 269.45 359.47 C 268.89 367.26 277.15 371.30 283.27 373.74 C 301.87 380.19 322.90 380.17 341.42 373.44 C 347.26 371.01 354.93 367.01 354.46 359.62 C 350.69 325.52 346.87 291.43 343.06 257.34 C 334.86 264.53 323.52 266.35 312.98 266.60 C 301.76 266.63 289.63 264.93 280.82 257.37 Z"></path>
<path fill="#151515" opacity="1.00" d=" M 577.43 236.53 C 596.37 234.29 616.42 239.48 630.94 252.10 C 654.80 272.32 661.94 308.12 650.83 336.85 C 644.78 352.89 632.81 366.79 617.34 374.34 C 589.18 388.36 551.40 381.37 532.06 355.94 C 510.61 329.03 510.85 287.31 532.71 260.71 C 543.64 247.13 560.12 238.34 577.43 236.53 M 578.41 240.47 C 555.56 242.51 535.12 258.33 526.46 279.41 C 513.44 308.88 522.38 347.11 549.17 365.80 C 575.60 385.07 616.62 379.79 636.45 353.46 C 658.56 325.97 656.01 282.04 630.24 257.75 C 616.74 244.50 597.11 238.29 578.41 240.47 Z"></path>
<path fill="#151515" opacity="1.00" d=" M 379.49 238.41 C 381.09 238.40 382.71 238.41 384.32 238.41 C 404.60 283.53 424.84 328.67 445.19 373.75 C 465.52 328.64 485.74 283.48 506.09 238.37 C 507.61 238.39 509.13 238.41 510.67 238.43 C 489.39 285.65 468.09 332.86 446.79 380.07 C 445.63 380.06 444.49 380.05 443.35 380.05 C 422.08 332.83 400.73 285.64 379.49 238.41 Z"></path>
<path fill="#151515" opacity="1.00" d=" M 682.89 238.40 C 703.06 238.46 723.23 238.29 743.40 238.49 C 757.51 238.83 772.82 242.47 782.44 253.54 C 794.84 268.21 793.39 293.04 778.52 305.55 C 769.20 313.55 756.78 316.62 744.80 317.58 C 760.37 338.08 776.00 358.53 791.56 379.04 C 789.74 379.04 787.94 379.05 786.14 379.06 C 770.58 358.78 755.40 338.18 739.56 318.14 C 722.20 317.31 704.72 318.03 687.32 317.79 C 687.31 338.21 687.32 358.63 687.31 379.06 C 685.83 379.05 684.36 379.05 682.89 379.06 C 682.89 332.17 682.89 285.29 682.89 238.40 M 687.32 242.43 C 687.31 266.21 687.32 289.98 687.31 313.75 C 704.55 313.70 721.79 313.86 739.03 313.67 C 752.03 313.38 766.00 310.99 776.00 302.03 C 790.52 289.38 789.51 263.47 774.05 251.99 C 762.67 243.37 747.78 242.28 734.01 242.43 C 718.44 242.44 702.88 242.43 687.32 242.43 Z"></path>
<path fill="#151515" opacity="1.00" d=" M 300.45 249.17 C 301.71 245.54 305.24 246.66 307.82 248.09 C 305.40 248.71 302.93 249.04 300.45 249.17 Z"></path>
<path fill="#151515" opacity="1.00" d=" M 317.18 247.58 C 319.39 247.56 321.60 247.68 323.79 247.96 C 322.24 249.43 320.26 250.10 318.20 250.42 C 317.94 249.71 317.44 248.29 317.18 247.58 Z"></path>
<path fill="#151515" opacity="1.00" d=" M 306.96 255.01 C 308.68 252.54 311.46 252.99 314.02 253.60 C 312.15 255.70 309.47 255.63 306.96 255.01 Z"></path>
<path fill="#151515" opacity="1.00" d=" M 288.31 286.18 C 293.63 284.09 287.95 291.93 288.31 286.18 Z"></path>
<path fill="#151515" opacity="1.00" d=" M 286.73 301.98 C 287.37 298.32 286.63 293.99 289.43 291.08 C 289.66 301.11 287.55 311.04 286.83 321.03 C 286.09 325.22 286.94 330.07 283.91 333.49 C 283.89 322.94 285.92 312.50 286.73 301.98 Z"></path>
<path fill="#151515" opacity="1.00" d=" M 286.08 362.27 C 292.31 365.69 299.58 366.07 305.85 369.06 C 299.06 369.35 290.00 368.65 286.08 362.27 Z"></path>
<path fill="#151515" opacity="1.00" d=" M 308.12 368.30 C 312.71 367.18 307.17 372.99 308.12 368.30 Z"></path>
</g>
</svg>