<?xml version="1.0" encoding="UTF-8" ?>

<svg width="958pt" height="630pt" viewBox="0 0 958 630" version="1.1" xmlns="http://www.w3.org/2000/svg">
<g id="#111111ff">
</g>
<g id="#fcfcfcff">
<path fill="#fcfcfc" opacity="1.00" d=" M 196.13 246.98 C 216.72 243.66 238.32 249.69 254.87 262.21 C 253.91 263.43 252.96 264.65 252.02 265.88 C 236.25 254.03 215.81 247.65 196.15 251.06 C 184.72 253.06 173.43 259.41 167.93 269.96 C 163.64 278.31 163.65 289.15 168.93 297.07 C 172.99 302.93 179.51 306.44 185.98 309.04 C 203.24 315.96 222.40 316.73 239.28 324.76 C 247.09 328.34 254.61 333.99 257.68 342.32 C 261.57 353.27 259.63 366.23 252.30 375.33 C 243.63 386.15 229.54 391.05 216.06 391.77 C 193.68 393.56 171.18 384.72 155.02 369.34 C 156.11 368.26 157.19 367.18 158.27 366.09 C 175.62 383.19 201.45 391.63 225.44 386.43 C 236.44 384.14 247.28 377.74 252.27 367.32 C 257.61 356.04 255.93 340.41 244.99 333.04 C 227.97 321.45 206.51 321.21 187.61 314.37 C 178.14 310.97 168.18 305.95 163.40 296.59 C 158.53 286.37 159.62 273.48 166.33 264.32 C 173.23 254.62 184.59 248.95 196.13 246.98 Z"></path>
<path fill="#fcfcfc" opacity="1.00" d=" M 318.42 246.49 C 328.93 245.44 339.90 246.11 349.75 250.20 C 354.67 252.28 359.95 256.00 360.20 261.88 C 364.26 297.94 368.29 334.01 372.27 370.08 C 372.90 378.02 365.43 383.18 359.03 386.04 C 343.72 392.52 326.45 393.14 310.18 390.68 C 301.20 389.03 291.79 386.43 284.98 380.01 C 281.99 377.21 280.39 373.05 281.05 368.98 C 285.23 332.71 288.98 296.39 293.34 260.16 C 296.58 249.98 309.22 247.90 318.42 246.49 M 318.40 249.45 C 310.71 250.62 301.61 252.14 296.79 258.92 C 294.26 264.05 300.28 267.95 304.31 269.69 C 317.41 274.92 332.46 274.95 345.88 270.88 C 350.31 269.22 355.80 267.00 357.08 261.95 C 357.33 257.92 353.44 255.37 350.32 253.70 C 340.46 248.97 329.12 248.42 318.40 249.45 M 295.31 267.34 C 291.67 301.59 287.66 335.81 283.94 370.05 C 283.47 378.07 292.09 382.08 298.40 384.53 C 317.12 390.79 338.21 390.75 356.72 383.79 C 362.41 381.35 369.83 377.33 369.30 370.11 C 365.58 335.84 361.56 301.60 357.92 267.32 C 349.55 274.80 337.83 276.54 327.01 276.73 C 315.93 276.64 303.91 274.95 295.31 267.34 Z"></path>
<path fill="#fcfcfc" opacity="1.00" d=" M 593.43 246.51 C 612.36 244.32 632.38 249.55 646.89 262.15 C 670.79 282.39 678.00 318.20 666.97 347.01 C 660.66 364.01 647.67 378.62 630.99 385.97 C 602.54 398.86 565.39 390.97 546.74 365.28 C 526.45 338.70 526.62 298.57 547.19 272.19 C 558.20 257.73 575.37 248.31 593.43 246.51 M 594.40 250.47 C 570.46 252.46 549.23 269.62 541.02 292.00 C 529.06 321.86 539.15 359.73 566.53 377.51 C 593.62 395.90 634.42 389.47 653.53 362.54 C 674.60 334.84 671.62 291.80 646.18 267.81 C 632.68 254.59 613.10 248.33 594.40 250.47 Z"></path>
<path fill="#fcfcfc" opacity="1.00" d=" M 394.42 248.42 C 396.03 248.42 397.65 248.41 399.26 248.41 C 419.64 293.73 439.99 339.06 460.40 384.36 C 480.76 339.05 501.15 293.74 521.50 248.42 C 523.04 248.42 524.60 248.41 526.16 248.41 C 504.78 295.84 483.39 343.26 461.99 390.68 C 460.84 390.66 459.69 390.65 458.54 390.64 C 437.19 343.22 415.78 295.84 394.42 248.42 Z"></path>
<path fill="#fcfcfc" opacity="1.00" d=" M 699.06 248.41 C 719.17 248.46 739.29 248.32 759.40 248.48 C 773.78 248.78 789.47 252.43 799.20 263.81 C 811.34 278.45 810.01 302.90 795.47 315.49 C 786.10 323.79 773.43 326.91 761.24 327.92 C 776.88 348.51 792.58 369.06 808.21 389.65 C 806.38 389.64 804.56 389.64 802.74 389.64 C 787.16 369.11 771.55 348.62 755.95 328.11 C 738.47 328.11 721.00 328.11 703.52 328.11 C 703.51 348.62 703.51 369.14 703.52 389.65 C 702.03 389.65 700.54 389.65 699.07 389.65 C 699.05 342.57 699.06 295.49 699.06 248.41 M 703.51 252.46 C 703.52 276.33 703.51 300.20 703.52 324.06 C 721.02 324.00 738.52 324.19 756.01 323.97 C 769.93 323.67 785.17 320.63 794.95 309.91 C 807.15 296.44 805.13 272.49 790.23 261.77 C 778.73 253.26 763.81 252.30 750.01 252.45 C 734.51 252.47 719.01 252.45 703.51 252.46 Z"></path>
<path fill="#fcfcfc" opacity="1.00" d=" M 314.46 258.02 C 316.98 256.47 319.79 256.54 322.37 257.99 C 319.81 259.32 317.04 259.45 314.46 258.02 Z"></path>
<path fill="#fcfcfc" opacity="1.00" d=" M 331.32 257.85 C 333.55 257.65 335.79 257.69 338.03 257.71 C 337.34 261.27 332.59 260.69 331.32 257.85 Z"></path>
<path fill="#fcfcfc" opacity="1.00" d=" M 321.26 263.88 C 323.76 263.11 326.34 263.06 328.86 263.83 C 326.59 266.06 323.60 265.87 321.26 263.88 Z"></path>
<path fill="#fcfcfc" opacity="1.00" d=" M 303.19 296.36 C 307.80 295.35 302.17 301.04 303.19 296.36 Z"></path>
<path fill="#fcfcfc" opacity="1.00" d=" M 301.23 312.95 C 301.95 308.99 301.05 304.26 304.15 301.16 C 303.98 312.14 302.01 323.01 301.13 333.95 C 300.61 337.29 301.15 341.21 298.58 343.85 C 298.27 333.50 300.50 323.26 301.23 312.95 Z"></path>
<path fill="#fcfcfc" opacity="1.00" d=" M 300.30 373.06 C 304.73 373.73 308.45 376.62 312.93 377.14 C 315.35 377.71 318.43 377.37 319.87 379.87 C 313.01 379.72 304.87 378.80 300.30 373.06 Z"></path>
<path fill="#fcfcfc" opacity="1.00" d=" M 323.23 378.24 C 324.95 377.67 325.74 380.57 323.96 380.96 C 322.22 381.52 321.44 378.62 323.23 378.24 Z"></path>
</g>
</svg>